# xmcd
#
# Track frame offsets: 
#        150
#        13266
#        27691
#        39087
#        53201
#        67561
#        82508
#        97496
#        112730
#        127538
#        139009
#        152334
#        165270
#        178866
#        194176
#        210527
#        225335
#        240528
#        252449
#        266256
#        279990
#        293703
#        306698
#
# Disc length: 4267 seconds
#
# Revision: 3
# Processed by: cddbd v1.5.2PL0 Copyright (c) Steve Scherf et al.
# Submitted via: ExactAudioCopy v1.0b3
#
DISCID=2d10a917
DTITLE=Various Artist - Jazz in the Charts - CD008 (1928-1929)
DYEAR=1900
DGENRE=Jazz
TTITLE0=McKinney's Cotton Pickers - Milenberg Joys
TTITLE1=Duke Ellington and His Orchestra - The Mooche
TTITLE2=Bennie Moten's Kansas City Orchestra - South
TTITLE3=Dorsey Brothers Orchestra - Sally of My Dreams
TTITLE4=Clarence 'Pine Top' Smith - Pine Top's Boogie Woogie
TTITLE5=Dorsey Brothers Orchestra - Let's Do it
TTITLE6=Louis Armstrong and His Savoy Ballroom Five - St. James Infirmar
TTITLE6=y
TTITLE7=Coon-Sanders Original Nighthawk Orchestra - Little Orphan Anni
TTITLE7=e
TTITLE8=Ethel Waters - Am I Blue
TTITLE9=Boys (Ben Pollack) - Yellow Dog
TTITLE10=Bessie Smith - Nobody Knows You When You're Down and Out
TTITLE11=Ethel Waters - Birmingham Bertha
TTITLE12=Ethel Waters and Others - True Blue Lou
TTITLE13=Louis Armstrong and His Orchestra - Ain't Misbehavin'
TTITLE14=Charleston Chasers - Moanin' Low
TTITLE15=Jean Goldkette and His Orchestra - Painting the Clouds with Sun
TTITLE15=shine
TTITLE16=Irving Mills and His Hotsy Totsy Gang - Ain't Misbehavin'
TTITLE17=Red Nichols and His Five Pennies - (Back Home Again In) Indiana
TTITLE18=Jean Goldkette and His Orchestra - Tip Toe Through the Tulips
TTITLE19=Harry Reser's Syncopators - Piccolo Pete
TTITLE20=Fats Waller - Ain't Misbehavin'
TTITLE21=Coon-Sanders Original Nighthawk Orchestra - I Gotta Great Big
TTITLE21=Date with a Little Bitta Girl
TTITLE22=Louis Armstrong and His Orchestra - When You're Smiling
EXTD=
EXTT0=
EXTT1=
EXTT2=
EXTT3=
EXTT4=
EXTT5=
EXTT6=
EXTT7=
EXTT8=
EXTT9=
EXTT10=
EXTT11=
EXTT12=
EXTT13=
EXTT14=
EXTT15=
EXTT16=
EXTT17=
EXTT18=
EXTT19=
EXTT20=
EXTT21=
EXTT22=
PLAYORDER=
